<?xml version="1.0" encoding="UTF-8"?>
<svg id="Layer_2" data-name="Layer 2" xmlns="http://www.w3.org/2000/svg" viewBox="0 0 338.38 385.74">
  <defs>
    <style>
      .cls-1 {
        fill: #000;
        opacity: .3;
      }

      .cls-1, .cls-2, .cls-3, .cls-4, .cls-5, .cls-6, .cls-7, .cls-8, .cls-9, .cls-10, .cls-11, .cls-12, .cls-13, .cls-14, .cls-15, .cls-16 {
        stroke-width: 0px;
      }

      .cls-1, .cls-6, .cls-17, .cls-7, .cls-12, .cls-18, .cls-19 {
        isolation: isolate;
      }

      .cls-2 {
        fill: #e0e0e0;
      }

      .cls-3 {
        fill: #37474f;
      }

      .cls-20, .cls-12 {
        opacity: .5;
      }

      .cls-4 {
        fill: #455a64;
      }

      .cls-5 {
        fill: #ffa8a7;
      }

      .cls-6 {
        opacity: .2;
      }

      .cls-6, .cls-7, .cls-12, .cls-16 {
        fill: #fff;
      }

      .cls-7 {
        opacity: .4;
      }

      .cls-8 {
        fill: #ebebeb;
      }

      .cls-9 {
        fill: #e6e6e6;
      }

      .cls-10 {
        fill: #f28f8f;
      }

      .cls-11 {
        fill: #76868f;
      }

      .cls-13 {
        fill: #263238;
      }

      .cls-14 {
        fill: #fafafa;
      }

      .cls-15, .cls-18, .cls-19 {
        fill: #3b82f6;
      }

      .cls-18 {
        letter-spacing: .2em;
      }

      .cls-18, .cls-19 {
        font-family: Arial-BoldMT, Arial;
        font-size: 11.61px;
        font-weight: 700;
      }

      .cls-19 {
        letter-spacing: .2em;
      }
    </style>
  </defs>
  <g id="Layer_1-2" data-name="Layer 1">
    <g id="freepik--Shadows--inject-11">
      <ellipse class="cls-11" cx="203.65" cy="359.67" rx="45.16" ry="26.07"/>
      <path class="cls-11" d="M180.18,271.39l-120.79,69.75c-3.4,2-9.33,1.72-13.26-.55l-42.88-24.76c-3.92-2.26-4.35-5.69-1-7.65l120.79-69.75c3.4-2,9.33-1.72,13.26.55l42.88,24.76c3.97,2.26,4.4,5.69,1,7.65Z"/>
    </g>
    <g id="freepik--Device--inject-11">
      <path class="cls-3" d="M18.49,80.84c0-5.93,3.16-11.4,8.29-14.37L132.3,5.55c2.6-1.5,5.93-.61,7.43,2,.19.34.35.69.47,1.06-.57-2.51-2.14-4.67-4.34-6l-.38-.22C132.86.83,129.86,0,126.8,0h0c-.98,0-1.94.25-2.78.74L18.5,61.69c-5.14,2.96-8.3,8.44-8.3,14.37v228.19c0,3,2.44,5.44,5.45,5.43.95,0,1.88-.25,2.7-.72l.14-.08V80.84Z"/>
      <path class="cls-4" d="M132.16,252.82l-105.52,60.92c-2.6,1.5-5.92.62-7.42-1.98-.48-.83-.73-1.77-.73-2.72V80.84c0-5.93,3.16-11.4,8.29-14.37L132.3,5.55c2.61-1.5,5.93-.6,7.43,2.01.47.82.72,1.75.72,2.7v228.19c0,5.93-3.16,11.4-8.29,14.37Z"/>
      <path class="cls-13" d="M18.49,309.04V80.84c0-2.49.56-4.94,1.64-7.18l-8.16-5c-1.16,2.31-1.77,4.86-1.77,7.45v230.1c0,1.84.97,3.55,2.55,4.49l4.21,2.5c1.46.87,3.12,1.33,4.82,1.33h2.1c-3-.03-5.42-2.49-5.39-5.49h0Z"/>
      <path class="cls-3" d="M128.53,27.49v191.85c0,5.23-2.8,10.07-7.33,12.69l-93.18,53.79c-.7.41-1.5.63-2.31.64,1.05,2.43,3.88,3.55,6.31,2.5.17-.07.34-.16.5-.25l93.18-53.8c4.53-2.62,7.32-7.46,7.32-12.69V32.27c0-2.53-1.96-4.63-4.49-4.78Z"/>
      <path class="cls-15" d="M25.71,286.41c.81-.01,1.61-.23,2.31-.64l93.18-53.79c4.52-2.61,7.31-7.42,7.33-12.64V27.49c-.94,0-1.86.22-2.7.63l-93.18,53.79c-4.54,2.62-7.33,7.45-7.33,12.69v189.9c0,.67.14,1.33.4,1.94v-.03Z"/>
      <g class="cls-20">
        <path class="cls-16" d="M25.71,286.41c.81-.01,1.61-.23,2.31-.64l93.18-53.79c4.52-2.61,7.31-7.42,7.33-12.64V27.49c-.94,0-1.86.22-2.7.63l-93.18,53.79c-4.54,2.62-7.33,7.45-7.33,12.69v189.9c0,.67.14,1.33.4,1.94v-.03Z"/>
      </g>
      <path class="cls-13" d="M64.7,53.8c-.06,1.18-.68,2.26-1.67,2.91-.93.53-1.68.1-1.68-1,.07-1.18.69-2.26,1.68-2.91.92-.46,1.67-.07,1.67,1Z"/>
      <path class="cls-13" d="M70.95,50.2c-.07,1.18-.69,2.26-1.68,2.91-.93.53-1.68.1-1.68-1,.07-1.18.69-2.26,1.68-2.91.92-.5,1.68-.07,1.68,1Z"/>
      <path class="cls-13" d="M96.14,37.59l-20.26,11.75c-.81.46-1.46,0-1.46-1.1h0c.02-1.11.56-2.14,1.46-2.78l20.29-11.71c.8-.47,1.45,0,1.45,1.09h0c-.03,1.1-.58,2.12-1.48,2.75Z"/>
      <path class="cls-13" d="M92.71,260.02h0c1.21,0,2,1.29,2,3.28,0,3.12-1.95,6.89-4.27,8.23l-9.71,5.61c-.43.27-.93.43-1.44.45-1.21,0-2-1.29-2-3.28,0-3.13,2-6.9,4.27-8.23l9.71-5.61c.44-.27.94-.43,1.45-.45M92.72,259.19c-.66.02-1.3.22-1.86.57l-9.71,5.6c-2.59,1.49-4.69,5.5-4.69,9,0,2.57,1.17,4.11,2.83,4.11.66-.02,1.3-.22,1.86-.57l9.71-5.6c2.58-1.49,4.68-5.5,4.68-9,0-2.57-1.16-4.11-2.82-4.11h0Z"/>
    </g>
    <g id="freepik--Screen--inject-11">
      <path class="cls-9" d="M39.07,108.05v215c0,3.9,1.43,6.51,3.61,7.37h.06l9.3,5.09-.06-8.26-1-222.93-9.81-5c-1.32,2.73-2.03,5.7-2.1,8.73Z"/>
      <path class="cls-9" d="M52.55,336.34l-10.06-5.51c-2.49-1-3.92-3.93-3.92-7.83V108c.05-3.12.78-6.19,2.13-9l.22-.47,10.54,5.39v.3l1,222.93.09,9.19ZM43,329.97l8.54,4.68v-7.42l-1-222.63-9.07-4.64c-1.15,2.54-1.77,5.28-1.82,8.06v215c0,3.52,1.23,6.1,3.3,6.91l.12.06-.07-.02Z"/>
      <path class="cls-2" d="M41.15,99.34l9.81,5,105-61.09,7-4.08-9.69-5.46-.27-.16h0c-1.55-.93-3.57-.87-5.8.42l-99.38,57.37c-2.97,1.95-5.29,4.73-6.67,8Z"/>
      <path class="cls-2" d="M50.96,104.83c-.08,0-.16-.02-.23-.06l-9.81-5c-.24-.11-.34-.4-.22-.64,0,0,0,0,0,0,1.43-3.35,3.82-6.21,6.87-8.2l99.4-57.39c2.3-1.32,4.54-1.47,6.3-.41h.08l.2.12,9.68,5.45c.15.09.25.26.25.44,0,.18-.09.34-.25.43L51.23,104.73c-.08.06-.17.09-.27.1ZM41.81,99.08l9.14,4.68,111-64.59-9.21-5.2-.07-.06c-1.43-.82-3.28-.65-5.22.47l-99.4,57.39c-2.73,1.79-4.9,4.33-6.24,7.31Z"/>
      <path class="cls-14" d="M48.69,113.45v214c0,3.37,1.08,5.79,2.79,6.93l.57.31c1.49.7,3.36.55,5.39-.63l48.05-27.72,51.39-30.9c5.35-3.34,8.64-9.16,8.76-15.47V45.97c0-3.26-1-5.62-2.62-6.81-.27-.2-.57-.37-.89-.5-1.76-.62-3.71-.37-5.25.68l-99.4,58.36c-2.8,1.47-5.07,3.78-6.48,6.62-1.44,2.83-2.23,5.95-2.31,9.13Z"/>
      <path class="cls-14" d="M156.88,275.44c-20.45,12.2-73.66,43.95-100,59.82-2.45,1.47-5.64.67-7.1-1.78-.48-.8-.73-1.72-.74-2.66V110.76c0-5.1,2.7-9.81,7.1-12.39l101.18-59.32c2.47-1.44,5.64-.61,7.08,1.86.46.79.7,1.68.71,2.6v217.36c0,5.96-3.12,11.49-8.23,14.57Z"/>
      <path class="cls-8" d="M156.59,275c-16.06,9.56-32.11,19.15-48.16,28.76l-28.5,17.05-13,7.8-5.69,3.42c-1.75,1.05-3.61,2.55-5.55,3.22-3.21,1.12-6.1-1.45-6.18-4.62V111.22c-.07-5.18,2.66-9.99,7.14-12.58,2.32-1.37,4.65-2.72,7-4.08l32.66-19.22,38.75-22.71c7.35-4.3,14.68-8.64,22-12.92,2.28-1.32,5.15-1.19,6.74,1.2.56.95.83,2.05.76,3.16v215.96c.2,6.07-2.85,11.79-8,15-.55.34-.05,1.21.5.87,5.42-3.36,8.66-9.33,8.52-15.7V59.45c0-5.22.05-10.45,0-15.68.08-3.19-2.44-5.83-5.63-5.91-1.15-.03-2.28.29-3.25.91-2.44,1.41-4.86,2.85-7.28,4.27l-33.54,19.73-39.1,22.92c-6.9,4.05-13.9,8.07-20.77,12.15-4.71,2.77-7.57,7.85-7.51,13.31v219.63c.04,3.17,2.64,5.71,5.81,5.67.56,0,1.11-.09,1.64-.26,1.89-.63,3.67-2.05,5.37-3.07l5.8-3.49,13-7.78c18.91-11.33,37.83-22.65,56.77-33.94l20.23-12.07c.52-.3.02-1.17-.53-.84Z"/>
      <path class="cls-8" d="M56.1,98.34l101.22-59.29c2.47-1.44,5.64-.61,7.08,1.86.46.79.7,1.68.71,2.6v9.55h0L49.03,120.06v-9.32c0-5.09,2.68-9.81,7.07-12.4Z"/>
      <ellipse class="cls-15" cx="107.06" cy="139.67" rx="37.17" ry="21.46" transform="translate(-67.43 162.55) rotate(-60)"/>
      <ellipse class="cls-12" cx="107.06" cy="139.67" rx="37.17" ry="21.46" transform="translate(-67.43 162.55) rotate(-60)"/>
      <path class="cls-3" d="M102.34,139.78c-.65,0-1.18-.53-1.18-1.18v-7.77c.18-3.74,2.15-7.16,5.3-9.19,1.7-1.4,4.23-1.16,5.63.54.73.89,1.05,2.06.86,3.2v7.78c0,.65-.53,1.18-1.18,1.18s-1.18-.53-1.18-1.18v-7.82c.36-.89-.08-1.9-.97-2.26-.73-.29-1.56-.06-2.03.56-2.41,1.61-3.94,4.25-4.12,7.15v7.77c.02.65-.48,1.19-1.13,1.22Z"/>
      <path class="cls-15" d="M116.58,128.15c-.56-.23-1.2-.16-1.7.19l-15.72,9.08c-.69.43-1.26,1.03-1.66,1.74-.63,1.02-.97,2.19-1,3.39v13.61c-.07.77.22,1.54.78,2.07.09.07.18.12.28.16h0c.54.2,1.14.13,1.62-.2l15.7-9.09c1.66-1.19,2.66-3.09,2.69-5.13v-13.63c.11-.86-.27-1.71-.99-2.19Z"/>
      <path class="cls-4" d="M108.88,142.34l1.52,4.36-5.33,3.07,1.33-5.38.19-.76c-.9,0-1.52-.67-1.52-1.89,0-.5.09-.99.25-1.46.42-1.3,1.27-2.42,2.41-3.16,1.47-.85,2.67-.16,2.67,1.54-.07,1.36-.61,2.66-1.52,3.68Z"/>
      <path class="cls-3" d="M106.36,144.34l.19-.76c-.9,0-1.52-.67-1.52-1.89,0-.5.09-.99.25-1.46l3.6,2.11,1.52,4.36-4.04-2.36Z"/>
      <path class="cls-15" d="M145.88,190l-77.6,44.77c-3.21,1.85-5.81-.12-5.81-4.39v-11.75c0-4.28,2.6-9.25,5.81-11.1l77.6-44.77c3.21-1.85,5.81.11,5.81,4.39v11.75c-.05,4.28-2.65,9.24-5.81,11.1Z"/>
      <rect class="cls-14" x="80.73" y="206.47" width="1.5" height="12.43"/>
      <rect class="cls-14" x="75.88" y="213.03" width="12.47" height="1.51" transform="translate(-95.6 69.35) rotate(-29.89)"/>
      <rect class="cls-14" x="80.73" y="208.3" width="1.5" height="8.79" transform="translate(-143.46 176.91) rotate(-60)"/>
      <rect class="cls-14" x="74.91" y="211.28" width="15.28" height="1.51" transform="translate(-142.42 177.95) rotate(-60.11)"/>
      <rect class="cls-14" x="106.3" y="192.55" width="1.5" height="12.43"/>
      <rect class="cls-14" x="100.83" y="198.04" width="12.43" height="1.5" transform="translate(-85.05 80.15) rotate(-30)"/>
      <rect class="cls-14" x="106.31" y="194.38" width="1.5" height="8.79" transform="translate(-118.62 192.1) rotate(-60)"/>
      <rect class="cls-14" x="100.42" y="197.25" width="15.28" height="1.51" transform="translate(-117.45 193.03) rotate(-60.11)"/>
      <rect class="cls-14" x="131.87" y="178.62" width="1.5" height="12.43"/>
      <rect class="cls-14" x="127.22" y="185.06" width="12.47" height="1.51" transform="translate(-74.84 91.21) rotate(-29.89)"/>
      <rect class="cls-14" x="131.88" y="180.45" width="1.5" height="8.79" transform="translate(-93.77 207.28) rotate(-60)"/>
      <rect class="cls-14" x="125.01" y="184.07" width="15.23" height="1.5" transform="translate(-93.75 207.27) rotate(-60)"/>
      <path class="cls-15" d="M148.13,206.18c1,0,1.51,1.55,1.51,3.09v11.75c0,3.57-2.21,7.86-4.81,9.37l-77.55,44.77c-.39.25-.84.4-1.31.43-1,0-1.5-1.55-1.5-3.09v-11.75c0-3.57,2.2-7.86,4.81-9.37l77.6-44.77c.39-.25.84-.4,1.3-.43M148.18,204.18c-.81.03-1.61.27-2.3.7l-77.6,44.77c-3.21,1.85-5.81,6.82-5.81,11.1v11.75c0,3.18,1.44,5.09,3.5,5.09.82-.03,1.61-.27,2.31-.7l77.6-44.77c3.21-1.85,5.81-6.82,5.81-11.1v-11.75c0-3.18-1.45-5.09-3.51-5.09Z"/>
      <g class="cls-17">
        <text class="cls-18" transform="translate(88.03 255.29) rotate(-29.89) scale(1 .87) skewX(-26.41)"><tspan x="0" y="0">en</tspan></text>
        <text class="cls-19" transform="translate(105.07 245.5) rotate(-29.89) scale(1 .87) skewX(-26.41)"><tspan x="0" y="0">t</tspan></text>
        <text class="cls-19" transform="translate(111.62 241.74) rotate(-29.89) scale(1 .87) skewX(-26.41)"><tspan x="0" y="0">er</tspan></text>
      </g>
    </g>
    <g id="freepik--Fingerprint--inject-11">
      <path class="cls-4" d="M262.27,72.65c.09,1.61.95,3.07,2.31,3.93,1.28.72,2.31.13,2.31-1.31-.09-1.61-.95-3.07-2.31-3.93-1.27-.72-2.31-.14-2.31,1.31Z"/>
      <path class="cls-4" d="M231.3,81.96c-2.03-.07-4.01-.66-5.75-1.72l-7.33-4.15c-.25-.12-.35-.42-.23-.67.12-.25.42-.35.67-.23.02,0,.03.02.05.03l7.33,4.15c3.17,1.79,6.1,2.08,8.27.82s3.3-3.85,3.3-7.36c0-3.87,1.35-6.79,3.79-8.22s5.79-1.16,9.27.81l11.85,6.71c.24.14.32.44.19.68-.14.24-.44.32-.68.19l-11.85-6.66c-3.16-1.79-6.1-2.08-8.27-.81s-3.3,3.85-3.3,7.35c0,3.88-1.35,6.8-3.79,8.22-1.08.59-2.29.89-3.52.86Z"/>
      <path class="cls-4" d="M215.19,73.85c.07,1.3.77,2.48,1.87,3.17,1,.59,1.87.11,1.87-1.06-.07-1.3-.77-2.48-1.87-3.17-1.03-.59-1.87-.11-1.87,1.06Z"/>
      <path class="cls-15" d="M333.47,63.22l-49-27.74c-1.06-.78-2.49-.78-3.55,0l-4.24,2.92,2.89,3.57v51.63c0,3.61,2.2,7.8,4.9,9.37l47.77,27,.22,3.84,4.46-3.06c1.04-.97,1.57-2.37,1.44-3.79v-54.37c.02-3.61-2.18-7.8-4.89-9.37Z"/>
      <path class="cls-1" d="M333.47,63.22l-49-27.74c-1.06-.78-2.49-.78-3.55,0l-4.24,2.92,2.89,3.57v51.63c0,3.61,2.2,7.8,4.9,9.37l47.77,27,.22,3.84,4.46-3.06c1.04-.97,1.57-2.37,1.44-3.79v-54.37c.02-3.61-2.18-7.8-4.89-9.37Z"/>
      <path class="cls-15" d="M329.31,133.57l-49-27.74c-2.71-1.56-4.9-5.76-4.9-9.37v-54.4c0-3.62,2.19-5.28,4.9-3.71l49,27.74c2.71,1.56,4.9,5.76,4.9,9.37v54.41c0,3.61-2.19,5.27-4.9,3.7Z"/>
      <path class="cls-16" d="M319.02,86.49c-.23,0-.43-.15-.49-.37-1.04-3.86-2.66-7.54-4.79-10.92-.15-.23-.08-.54.15-.69.23-.15.53-.08.68.14,0,0,0,.01.01.02,2.19,3.46,3.85,7.24,4.92,11.19.07.27-.09.54-.35.62h-.13Z"/>
      <path class="cls-16" d="M320.14,96.66h0c-.28-.02-.49-.26-.47-.54,0-.53.06-1.09.06-1.66,0-1.71-.16-3.42-.45-5.1-.05-.28.14-.54.42-.58.28-.05.54.14.58.41.31,1.74.46,3.5.47,5.27,0,.59,0,1.17-.06,1.73-.02.28-.27.49-.55.47,0,0,0,0,0,0Z"/>
      <path class="cls-16" d="M289.55,80.06c-.26,0-.47-.2-.49-.45-.08-.87-.12-1.74-.12-2.58,0-4.85,1.31-8.85,3.69-11.28.19-.19.5-.2.69,0,0,0,0,0,0,0,.2.19.2.51,0,.71,0,0,0,0,0,0-2.19,2.24-3.4,6-3.4,10.58,0,.81,0,1.65.11,2.49.03.27-.17.51-.44.54,0,0,0,0-.01,0h-.04Z"/>
      <path class="cls-16" d="M311.67,71.97c-.15,0-.29-.06-.39-.18-1.85-2.36-4.13-4.35-6.71-5.88-3.32-1.88-6.44-2.24-9-1-.25.11-.54,0-.66-.24-.12-.25-.01-.55.23-.67,0,0,0,0,0,0,2.88-1.33,6.31-1,9.93,1.09,2.69,1.59,5.06,3.67,7,6.12.17.21.14.53-.07.7-.1.06-.22.08-.34.06Z"/>
      <path class="cls-16" d="M293,80.45c-.27,0-.49-.21-.5-.48v-.93c0-3.55.87-6.45,2.52-8.38.17-.21.48-.24.69-.07,0,0,0,0,.01,0,.21.18.24.5.06.71-1.49,1.75-2.28,4.42-2.28,7.73v.88c.01.28-.2.51-.48.52,0,0,0,0,0,0h-.02Z"/>
      <path class="cls-16" d="M296.88,70.15c-.28,0-.5-.22-.5-.5,0-.18.09-.34.24-.43,1.28-.76,2.78-1.07,4.26-.88.27.03.47.27.45.54-.03.27-.28.47-.55.45-1.26-.15-2.53.12-3.62.78-.09.04-.18.05-.28.04Z"/>
      <path class="cls-16" d="M319.02,103.09c-.2,0-.39-.12-.47-.31l-.58-1.45c-1.16-2.8-1.78-5.8-1.81-8.84,0-8.48-5.2-18.29-11.59-21.91-.24-.13-.32-.43-.19-.67,0,0,0,0,0-.01.13-.24.43-.33.66-.2,0,0,.01,0,.02,0,6.66,3.78,12.09,14,12.09,22.74.03,2.92.62,5.81,1.74,8.5l.58,1.45c.11.25,0,.54-.26.64,0,0,0,0-.01,0-.06.03-.12.04-.19.04Z"/>
      <path class="cls-16" d="M296.06,97.34c-.21,0-.4-.13-.47-.33-1.62-4.73-2.66-9.63-3.11-14.6-.02-.28.18-.52.46-.54,0,0,0,0,.01,0,.27,0,.5.2.53.47.43,4.88,1.43,9.69,3,14.33.1.25-.03.54-.28.63,0,0-.01,0-.02,0-.04.02-.08.03-.12.03Z"/>
      <path class="cls-16" d="M316.08,106.46c-.21,0-.4-.12-.47-.32l-1.34-3.6c-1.35-3.51-2.08-7.24-2.15-11v-3.93c0-4.67-3.35-10.36-7.47-12.69-1.92-1.09-3.7-1.28-5-.52s-2,2.33-2,4.46v3.48c.11,5.65,1.24,11.24,3.34,16.49l1.65,4.3c.1.26-.03.55-.28.65,0,0,0,0,0,0-.26.09-.54-.03-.64-.29l-1.65-4.3c-2.13-5.37-3.28-11.08-3.38-16.85v-3.47c0-2.5.87-4.39,2.47-5.32s3.75-.76,6,.51c4.39,2.49,8,8.57,8,13.56v3.93c.07,3.64.78,7.25,2.09,10.65l1.33,3.59c.1.25-.03.54-.28.64,0,0,0,0-.01,0l-.2.03Z"/>
      <path class="cls-16" d="M311.67,107.89c-.22,0-.41-.14-.48-.35l-.7-2.36c-1.27-4.14-1.95-8.45-2-12.78v-6.06c-.16-2.78-1.65-5.32-4-6.82-.74-.54-1.7-.65-2.54-.28-.71.52-1.1,1.38-1,2.26,0,6.76,2.06,14.55,5.79,21.94l1.41,2.79c.12.25.02.55-.23.68s-.55.02-.67-.23l-1.4-2.79c-3.81-7.53-5.9-15.48-5.9-22.39-.11-1.24.45-2.43,1.48-3.13,1.14-.55,2.49-.44,3.53.28,2.66,1.68,4.35,4.55,4.53,7.69v6.08c.05,4.24.7,8.45,1.95,12.5l.7,2.35c.08.26-.06.53-.32.61,0,0-.01,0-.02,0-.04,0-.09,0-.13,0Z"/>
      <path class="cls-16" d="M306.06,97.34c-.23,0-.44-.16-.49-.39l-.46-2.14c-.44-2.06-.66-4.16-.66-6.26v-5.63c0-.28.22-.5.5-.5s.5.22.5.5v5.63c0,2.02.22,4.03.64,6l.46,2.14c.06.26-.1.53-.37.59,0,0,0,0-.01,0l-.11.06Z"/>
      <path class="cls-16" d="M290.64,86.49c-.26,0-.47-.2-.5-.45l-.29-2.92c-.02-.27.18-.52.45-.55.27-.03.51.16.55.42,0,0,0,.02,0,.03l.29,2.92c.03.27-.17.52-.45.55,0,0,0,0,0,0h-.05Z"/>
    </g>
    <g id="freepik--face-recognition--inject-11">
      <path class="cls-15" d="M333.47,155.88l-49-27.75c-1.06-.78-2.49-.78-3.55,0l-4.24,2.92,2.89,3.57v51.63c0,3.61,2.2,7.8,4.9,9.37l47.77,27,.22,3.84,4.46-3.05c1.04-.98,1.57-2.38,1.44-3.8v-54.4c.02-3.58-2.18-7.77-4.89-9.33Z"/>
      <path class="cls-1" d="M333.47,155.88l-49-27.75c-1.06-.78-2.49-.78-3.55,0l-4.24,2.92,2.89,3.57v51.63c0,3.61,2.2,7.8,4.9,9.37l47.77,27,.22,3.84,4.46-3.05c1.04-.98,1.57-2.38,1.44-3.8v-54.4c.02-3.58-2.18-7.77-4.89-9.33Z"/>
      <path class="cls-15" d="M329.31,226.22l-49-27.74c-2.71-1.56-4.9-5.75-4.9-9.37v-54.4c0-3.61,2.19-5.27,4.9-3.71l49,27.74c2.71,1.57,4.9,5.76,4.9,9.37v54.41c0,3.61-2.19,5.27-4.9,3.7Z"/>
      <path class="cls-16" d="M286.33,149.89c-.28,0-.5-.22-.5-.5v-3.37c0-.68.36-1.31.95-1.65.62-.37,1.38-.37,2,0l3.53,2c.24.14.33.44.2.68s-.44.33-.68.2l-3.54-2c-.31-.18-.69-.18-1,0-.28.16-.45.46-.45.78v3.37c0,.27-.23.49-.5.49Z"/>
      <path class="cls-16" d="M292.01,196.26c-.08,0-.17-.02-.24-.06l-3.3-1.87c-1.61-.92-2.59-2.64-2.59-4.49v-3.11c0-.28.22-.5.5-.5s.5.22.5.5v3.11c0,1.5.82,2.89,2.13,3.62l3.3,1.87c.24.14.32.45.17.69-.09.15-.25.24-.42.24h-.05Z"/>
      <path class="cls-16" d="M321.88,212.97c-.35,0-.7-.08-1-.26l-3.53-2c-.24-.14-.32-.44-.19-.68.14-.24.44-.32.68-.19l3.54,2c.31.18.69.18,1,0,.28-.16.45-.46.45-.78v-3.37c0-.28.22-.5.5-.5s.5.22.5.5v3.37c0,.68-.36,1.31-.95,1.64-.3.18-.65.27-1,.27Z"/>
      <path class="cls-16" d="M323.31,170.84c-.28,0-.5-.22-.5-.5v-3.11c0-1.5-.82-2.88-2.13-3.61l-3.3-1.87c-.24-.14-.33-.45-.19-.69.13-.24.43-.32.67-.19,0,0,0,0,.01,0l3.3,1.87c1.62.91,2.63,2.62,2.64,4.48v3.11c0,.28-.22.5-.5.5Z"/>
      <path class="cls-16" d="M290.76,166.71c.11,5.68.92,11.32,2.42,16.8,3.8,14.34,18.79,23.15,22.91,13.44,1.94-4.78,2.88-9.9,2.79-15.05,0-8.8-6.3-19.5-14.06-23.9-7.94-4.49-14.17-.32-14.06,8.71Z"/>
      <polygon class="cls-2" points="304.32 174.72 304.32 184.14 300.23 181.08 304.32 174.72"/>
      <path class="cls-2" d="M296.71,169.09c.05.94.55,1.79,1.34,2.3.75.42,1.35.08,1.35-.77-.05-.94-.56-1.79-1.35-2.29-.74-.42-1.34-.08-1.34.76Z"/>
      <path class="cls-2" d="M309.23,176.27c.06.94.56,1.79,1.35,2.29.75.42,1.35.08,1.35-.76-.05-.94-.56-1.8-1.35-2.3-.7-.42-1.35-.08-1.35.77Z"/>
      <path class="cls-2" d="M302.97,188.75l4.57-.77s-.97,4.88-4.57.77Z"/>
      <path class="cls-4" d="M262.27,160.06c.1,1.6.96,3.06,2.31,3.92,1.28.73,2.31.14,2.31-1.3-.09-1.61-.95-3.07-2.31-3.93-1.27-.73-2.31-.14-2.31,1.31Z"/>
      <path class="cls-4" d="M262.36,161.15c-.09,0-.17-.02-.25-.06l-11.84-6.75c-6.93-3.92-12.57-13.51-12.57-21.36s-5.41-16.73-12.06-20.5l-7.42-4.2c-.24-.14-.32-.44-.19-.68.13-.24.43-.33.66-.2,0,0,.01,0,.02,0l7.42,4.2c6.93,3.93,12.57,13.51,12.57,21.37s5.41,16.72,12.06,20.49l11.85,6.72c.24.14.32.44.19.68-.09.17-.25.27-.44.28Z"/>
      <path class="cls-4" d="M215.19,105.88c.08,1.3.77,2.48,1.87,3.18,1,.58,1.87.11,1.87-1.06-.08-1.3-.77-2.48-1.87-3.18-1.03-.58-1.87-.11-1.87,1.06Z"/>
    </g>
    <g id="freepik--Character--inject-11">
      <path class="cls-5" d="M229.26,197.54s7.29-.49,11.42,9.64c2.57,6.3,5.7,16,7.7,22.5,1.24,4.01-.04,8.38-3.26,11.08l-12.71,10.67-4.53-8.27c2.64-3.52,5.55-6.84,8.69-9.93l-8.69-26.05,1.38-9.64Z"/>
      <path class="cls-15" d="M232.62,228.48s11.58,1.53,14.47-7.4c0,0-5-13.07-7.24-17.41s-6.92-7.5-10.59-6.13,3.36,30.94,3.36,30.94Z"/>
      <path class="cls-7" d="M232.62,228.48s11.58,1.53,14.47-7.4c0,0-5-13.07-7.24-17.41s-6.92-7.5-10.59-6.13,3.36,30.94,3.36,30.94Z"/>
      <path class="cls-3" d="M224.88,345.74s-5.5-4.71-7.64-4.93-5.84,3.44-2.71,9.79c.87,1.77,4.41,3.68,6.62,7.07s4.19,5.94,7.58,5.47,3.83-2.37,3.61-4.58c-.29-2.02-.69-4.03-1.21-6l-6.25-6.82Z"/>
      <path class="cls-13" d="M228.88,362.13c-3.49.48-5.54-2.15-7.82-5.64s-5.92-5.47-6.82-7.29c-.36-.73-.65-1.49-.88-2.27.17,1.28.55,2.52,1.14,3.67.87,1.77,4.41,3.68,6.62,7.07s4.19,5.94,7.58,5.47c2.6-.35,3.46-1.56,3.62-3.1-.44,1.04-1.39,1.82-3.44,2.09Z"/>
      <path class="cls-8" d="M221.96,351.8c-.09,0-.18-.02-.25-.07-.26-.14-.36-.46-.22-.72,0,0,0,0,0,0,1.12-1.98,2.98-3.44,5.17-4.06.29-.04.57.16.62.45.04.26-.12.52-.38.6-1.89.55-3.49,1.81-4.47,3.51-.09.18-.27.29-.47.29Z"/>
      <path class="cls-8" d="M219.88,349.9c-.09,0-.17-.02-.25-.06-.26-.14-.36-.46-.22-.72,0,0,0,0,0,0,1.12-1.99,2.98-3.45,5.18-4.06.26-.14.58-.03.71.23.14.26.03.58-.23.71-.08.04-.17.06-.26.06-1.89.56-3.49,1.82-4.47,3.52-.08.19-.26.32-.47.32Z"/>
      <path class="cls-8" d="M217.55,348.01c-.09,0-.17-.02-.25-.06-.26-.14-.36-.47-.22-.73,1.12-1.98,2.99-3.44,5.18-4.05.28-.07.57.11.64.39,0,0,0,0,0,0,.06.29-.12.58-.41.64-1.89.56-3.49,1.82-4.47,3.52-.09.17-.27.28-.47.28Z"/>
      <path class="cls-3" d="M195.61,361.19s-7.37-2.39-9.57-1.73-4.35,5.8,1.35,10.79c1.58,1.38,5.86,1.82,9.44,4.26s6.58,4.13,9.74,2.28,2.9-4,2.33-6.28c-.71-2.94-1.29-5.08-1.29-5.08l-12-4.24Z"/>
      <path class="cls-13" d="M206.33,375.72c-3.25,1.91-6.36.16-10-2.36s-8.1-3-9.73-4.39c-.66-.57-1.27-1.21-1.81-1.89.69,1.2,1.58,2.27,2.64,3.17,1.58,1.38,5.86,1.82,9.44,4.26s6.58,4.13,9.74,2.28c2.41-1.41,2.77-3,2.3-4.55-.03,1.21-.71,2.38-2.58,3.48Z"/>
      <path class="cls-8" d="M193.88,368h-.05c-.29-.03-.51-.29-.48-.59.29-2.41,1.52-4.6,3.43-6.1.24-.17.57-.12.74.12,0,0,0,0,0,0,.17.24.12.58-.12.75-1.65,1.33-2.72,3.24-3,5.34-.03.27-.25.48-.52.48Z"/>
      <path class="cls-8" d="M196.88,368.99h0c-.29-.03-.5-.29-.48-.58.29-2.41,1.53-4.6,3.43-6.11.24-.17.58-.11.75.13.17.24.11.57-.13.74,0,0,0,0,0,0-1.65,1.33-2.73,3.24-3,5.34-.03.29-.28.5-.57.48Z"/>
      <path class="cls-8" d="M191.04,366.97h-.05c-.29-.03-.5-.29-.48-.58.29-2.41,1.52-4.61,3.43-6.11.24-.17.57-.12.74.12s.12.57-.12.74h0c-1.65,1.33-2.73,3.24-3,5.34-.03.27-.25.48-.52.48Z"/>
      <path class="cls-4" d="M231.48,347.14c.66-7.3,2.09-18.74,2.69-24.09.81-6.76.61-13.61-.58-20.31-.31-1.58-.38-3.2-.23-4.8,1.45-14.54,2.39-38.11,1.59-43.29l-20.41,4.32s2.5,33.07,3.6,44.07,5.2,44.2,5.2,44.2c2.49,1.59,5.69,1.55,8.14-.1Z"/>
      <path class="cls-5" d="M228.54,354.65c1.14-.27,2.1-1.04,2.6-2.1,0-1.15.13-3.07.34-5.41-2.45,1.65-5.65,1.69-8.14.1l.72,6.14c1.22,1.09,2.87,1.56,4.48,1.27Z"/>
      <path class="cls-4" d="M208.52,359.98c.83-11.06,2.44-32.47,2.65-35.84.16-3.72-.08-7.44-.7-11.11-.36-1.98-.36-4.02,0-6l9-49.78-24.67-.36-1.61,52.15c-.02.67,0,1.34.08,2l5.23,48.61h0s5.1,4.29,10.02.33Z"/>
      <path class="cls-5" d="M204.4,369.1c1.56-.18,2.92-1.14,3.62-2.54l.5-6.58c-4.92,4-10-.31-10-.31h0l.78,7.28s1.14,2.52,5.1,2.15Z"/>
      <path class="cls-15" d="M206.2,200.86l-5.82,2-6.26,29.61.31,26.25s4.47,3.57,21.93,3.57c9.8,0,16.19-3.7,18.59-7.63l-1.57-15.86s1.57-15.63,1.57-23.36.35-14.06-5.69-17.89l-5.38.45-17.68,2.86Z"/>
      <path class="cls-6" d="M206.2,200.86l-5.82,2-6.26,29.61.31,26.25s4.47,3.57,21.93,3.57c9.8,0,16.19-3.7,18.59-7.63l-1.57-15.86s1.57-15.63,1.57-23.36.35-14.06-5.69-17.89l-5.38.45-17.68,2.86Z"/>
      <path class="cls-10" d="M199.88,175.41l-2.91,5.77c-.16.32-.03.71.29.87.03.01.06.03.09.04l3.45,1.16-.92-7.84Z"/>
      <path class="cls-5" d="M203.88,165.74s-4.42,2.38-4.42,16c0,7.51.52,12.3,4.42,12s15.14-1.77,15.14-1.77v-26.23h-15.14Z"/>
      <path class="cls-10" d="M203.88,193.79c1.37-.11,3.65-.36,6-.64v-1.39c-2.14.91-4.39,1.59-6.68,2,.23.03.45.04.68.03Z"/>
      <polygon class="cls-5" points="209.28 191.18 209.28 199.75 221.01 199.75 221.01 187.71 209.28 191.18"/>
      <path class="cls-15" d="M209.28,196.49s4.22,1.5,7.6.91,4.13-2.65,4.13-2.65c0,0,1.1-.09,2.87,3.24-1.4,2.53-3.97,4.19-6.85,4.42-3.68.24-7.37-.29-10.83-1.55,0,0,1.68-4.8,3.08-4.37Z"/>
      <path class="cls-7" d="M209.28,196.49s4.22,1.5,7.6.91,4.13-2.65,4.13-2.65c0,0,1.1-.09,2.87,3.24-1.4,2.53-3.97,4.19-6.85,4.42-3.68.24-7.37-.29-10.83-1.55,0,0,1.68-4.8,3.08-4.37Z"/>
      <path class="cls-5" d="M183.11,221.93l-3.15,4.84s-7.65-3.41-13-5.48c-3.12-1.16-6.02-2.83-8.58-4.94.19-2.08.53-4.15,1-6.19.62-2.1.83-3.85-1-2.92s-3.1,4.54-3.21,5c0,0-10.75-10.81-12.09-10.57s-1,1.86,1.86,5.19l2.89,3.34s-6.59,3.79-5.52,7.93,9.76,6,9.76,6c0,0,25.43,19.54,31.06,16s13.6-13.65,13.6-13.65l-13.62-4.55Z"/>
      <path class="cls-15" d="M202.69,202.09s4.7,3.86,1.64,11.84-10.87,17.62-10.87,17.62c0,0-8.18-2.55-11.34-9.16l10.32-16.15c1.48-2.33,3.99-3.82,6.75-4,.98-.06,2.14-.11,3.5-.15Z"/>
      <path class="cls-7" d="M202.69,202.09s4.7,3.86,1.64,11.84-10.87,17.62-10.87,17.62c0,0-8.18-2.55-11.34-9.16l10.32-16.15c1.48-2.33,3.99-3.82,6.75-4,.98-.06,2.14-.11,3.5-.15Z"/>
      <path class="cls-13" d="M202.23,157.7s-4.64-.62-5.82,2.57c-.74,2,1.62,3.54,1.62,3.54,0,0-3,2.81,1.47,3.68-.26,1.6.83,3.11,2.44,3.37.39.06.79.05,1.17-.05,0,0-.52,3,3.39,4.09,0,0-2,5.26,1.74,5.33h3.47l-1.4,4.06s2.6,6.26,10.7,6.26c.89-1.9,1.89-3.75,3-5.53,1-1.25,6-7.66,6-12.74s-1.95-8.09-4.66-8.76c-.86-1.87-2.2-3.47-3.88-4.65-2.73-1.84-8.47-3.48-11.71-1.22,0,0-2.87-3.77-4.86-3.77s-2.67,2.05-2.67,3.82Z"/>
      <path class="cls-5" d="M208.24,180.23s-.34-5.33,4.15-5.33,3.43,9.39-2.08,9.39l-2.07-4.06Z"/>
    </g>
  </g>
</svg>